<svg xmlns="http://www.w3.org/2000/svg" viewBox="0 0 500 500" width="500" height="500">
  <!-- Square avatar: logo mark + "The Tube" below, white background -->
  <!-- Matches Slack avatar layout -->
  <defs>
    <style>
      .cls-1{fill:#f0e2d5;}
      .cls-2{fill:#ea8725;}
      .cls-3{fill:#48597a;}
      .cls-4{fill:#280001;}
    </style>
  </defs>

  <!-- White background with rounded corners -->
  <rect width="500" height="500" rx="60" ry="60" fill="#ffffff"/>

  <!-- Logo mark centered, scaled to fit upper portion -->
  <!-- Original mark viewBox ~900x550, scale 0.42 = 378x231 -->
  <!-- Center X: (500-378)/2=61, Y: ~50 -->
  <g transform="translate(61, 50) scale(0.42)">
    <!-- Orange sun/starburst -->
    <path class="cls-2" d="m735.92,310.42l1.41-4.71c2.22-7.46,9.82-11.94,17.42-10.27l16.15,3.54c10.05,2.2,19.24-6.23,17.92-16.43l-2.13-16.39c-1-7.72,4.12-14.9,11.74-16.47l16.19-3.34c10.08-2.08,15.04-13.52,9.68-22.3l-8.61-14.11c-4.05-6.64-2.3-15.29,4.02-19.82l13.43-9.63c8.36-6,8.25-18.47-.22-24.31l-13.61-9.39c-6.4-4.42-8.32-13.03-4.39-19.74l8.35-14.27c5.2-8.88.02-20.23-10.09-22.12l-16.25-3.04c-7.65-1.43-12.9-8.52-12.04-16.25l1.83-16.43c1.14-10.23-8.21-18.49-18.22-16.1l-16.08,3.83c-7.57,1.8-15.25-2.54-17.61-9.95l-5.01-15.75c-3.12-9.8-15.02-13.55-23.19-7.3l-13.13,10.04c-6.18,4.73-14.96,3.88-20.13-1.93l-10.99-12.35c-6.84-7.69-19.23-6.27-24.15,2.76l-7.91,14.51c-3.72,6.83-12.09,9.63-19.18,6.43l-15.06-6.82c-9.37-4.24-20.12,2.09-20.94,12.35l-1.33,16.48c-.62,7.76-7.12,13.72-14.91,13.67l-16.53-.1c-5.75-.04-10.54,3.12-13.06,7.6l167.32,192.86,39.29,45.28Z"/>
    <!-- Blue A-frame -->
    <path class="cls-3" d="m891.03,489.19l-155.1-178.77-39.29-45.28-167.32-192.86-51.84-59.75c-14.5-16.72-40.45-16.72-54.96,0l-219.16,252.6L8.97,489.19c-20.44,23.55-3.7,60.22,27.48,60.22h83.91v-70.92c0-80.72,65.43-146.15,146.15-146.15h27.86v-3.67c0-9.77,7.92-17.69,17.69-17.69h146.51c9.77,0,17.69,7.92,17.69,17.69v3.67h157.23c43.09,0,81.82,18.65,108.57,48.31,23.36,25.91,37.58,60.21,37.58,97.84v70.92h83.91c31.18,0,47.91-36.66,27.48-60.22Z"/>
    <!-- Cream camper body -->
    <path class="cls-1" d="m652.31,490.07c-17.26,0-31.25-13.99-31.25-31.25v-46.92c0-17.26,13.99-31.25,31.25-31.25h89.75c-26.75-29.67-65.48-48.31-108.57-48.31h-157.23v-3.67c0-9.77-7.92-17.69-17.69-17.69h-146.51c-9.77,0-17.69,7.92-17.69,17.69v3.67h-27.86c-80.72,0-146.15,65.44-146.15,146.15v70.92h659.29v-59.34h-127.33Zm-293.25-31.25c0,17.26-13.99,31.25-31.25,31.25h-46.92c-17.26,0-31.25-13.99-31.25-31.25v-46.92c0-17.26,13.99-31.25,31.25-31.25h46.92c17.26,0,31.25,13.99,31.25,31.25v46.92Zm126.47,0c0,17.26-13.99,31.25-31.25,31.25h-46.92c-17.26,0-31.25-13.99-31.25-31.25v-46.92c0-17.26,13.99-31.25,31.25-31.25h46.92c17.26,0,31.25,13.99,31.25,31.25v46.92Z"/>
    <!-- Dark windows -->
    <rect class="cls-4" x="249.64" y="380.65" width="109.42" height="109.42" rx="31.25" ry="31.25"/>
    <rect class="cls-4" x="376.11" y="380.65" width="109.42" height="109.42" rx="31.25" ry="31.25"/>
    <!-- Dark door -->
    <path class="cls-4" d="m621.06,411.9v46.92c0,17.26,13.99,31.25,31.25,31.25h127.33v-11.58c0-37.63-14.22-71.93-37.58-97.84h-89.75c-17.26,0-31.25,13.99-31.25,31.25Z"/>
  </g>

  <!-- "The Tube" wordmark centered below mark -->
  <!-- Scale up and center properly -->
  <!-- Wordmark paths span x=411-900 (489 units), height ~80 units -->
  <!-- At scale 0.45: 489*0.45=220px wide. Center: (500-220)/2=140, but offset for path start at x=411 -->
  <!-- Offset X: 140 - 411*0.45 = 140 - 185 = -45 -->
  <g transform="translate(-45, 265) scale(0.45)">
    <path fill="#280001" d="m458.61,148.11h-46.92v-3.44l6.3-1.66c5.82-1.54,6.06-3.09,6.06-26.96s-.24-31.83-.71-35.4c-4.99,1.54-7.25,5.34-11.64,14.61l-7.01,15.56h-2.85c.95-11.76,1.07-23.88,1.19-33.97h63.79c.12,10.1.24,22.21,1.19,33.97h-2.85l-7.01-15.56c-4.4-9.15-6.89-12.71-11.64-14.61-.36,3.21-.48,9.03-.48,26.61,0,34.21.95,34.68,6.65,35.99l6.06,1.43-.12,3.44Z"/>
    <path fill="#280001" d="m472.04,79.33v-2.85c9.62-1.54,21.02-4.99,26.73-9.74l1.66.59c-.36,7.48-.83,20.79-.95,37.54h.95c2.02-8.08,11.76-17.46,22.92-17.46,8.79,0,14.97,5.11,14.97,14.73,0,7.13-.24,15.32-.24,22.45,0,17.82.12,18.53,4.51,19.6l2.02.48v3.44h-34.33v-3.44l2.14-.59c4.04-.95,3.92-3.09,3.92-22.21,0-16.75-1.9-18.77-8.55-18.77-4.04,0-7.6,1.43-7.6,7.01,0,32.19.12,32.67,4.16,33.73l2.85.83v3.44h-35.16v-3.44l1.9-.59c4.63-1.66,4.63-3.09,4.63-25.18,0-33.85.36-36.11-2.61-37.65l-3.92-1.9Z"/>
    <path fill="#280001" d="m605.19,109.74l-19.36,2.85-15.92-.59v.36c0,17.46,6.06,20.67,15.8,20.67,8.43,0,14.14-2.97,17.82-12.23l1.9,1.9c-3.8,12.35-8.31,26.73-29.1,26.73-16.75,0-29.22-8.91-29.22-30.29s13.66-31.6,35.4-31.6c17.94,0,22.81,8.2,22.69,22.21Zm-35.28,1.31l12.71-2.14c1.78-.24,2.61-1.07,2.61-2.97,0-7.96-4.87-14.25-10.22-14.25-4.28,0-5.11,2.73-5.11,19.36Z"/>
    <path fill="#280001" d="m684.77,148.11h-46.92v-3.44l6.3-1.66c5.82-1.54,6.06-3.09,6.06-26.96s-.24-31.83-.71-35.4c-4.99,1.54-7.25,5.34-11.64,14.61l-7.01,15.56h-2.85c.95-11.76,1.07-23.88,1.19-33.97h63.79c.12,10.1.24,22.21,1.19,33.97h-2.85l-7.01-15.56c-4.4-9.15-6.89-12.71-11.64-14.61-.36,3.21-.48,9.03-.48,26.61,0,34.21.95,34.68,6.65,35.99l6.06,1.43-.12,3.44Z"/>
    <path fill="#280001" d="m699.62,98.58l-2.85-1.19v-2.85c8.2-1.54,19.84-4.51,25.89-7.01l1.66.59c-.12,6.41-.48,18.65-.48,31.24,0,11.52,2.26,14.25,9.15,14.25,3.44,0,7.01-1.9,7.01-7.01,0-26.25-.12-26.49-3.8-28.27l-2.14-.95v-2.85c9.74-2.14,19.12-4.87,26.49-7.96l1.66.59c-.59,5.7-.59,9.15-.59,26.49,0,25.66,0,28.86,3.68,30.41l2.85,1.19v2.85h-26.84c0-5.94.12-11.76.12-17.7h-.95c-2.49,10.69-12.83,18.89-23.64,18.89-8.91,0-14.85-5.11-14.85-14.73,0-7.13.24-15.2.24-21.14,0-13.18-.24-13.66-2.61-14.85Z"/>
    <path fill="#280001" d="m782.88,142.53c-2.97,3.44-5.58,6.18-5.58,6.18l-2.38-.24c1.07-4.63,1.07-21.26,1.07-35.28,0-29.46.36-30.76-2.61-32.07l-3.92-1.43v-3.21c14.25-2.85,22.09-4.99,26.73-9.74l1.78.47c-.59,10.57-.95,24.71-1.07,35.87h.95c1.9-6.77,11.28-15.68,21.26-15.68,12.59,0,18.05,7.72,18.05,25.78,0,20.79-13.07,36.11-29.93,36.11-8.55,0-17.94-3.21-24.35-6.77Zm31.36-17.22c0-16.87-1.66-23.99-9.15-23.99-3.92,0-7.36,1.54-7.36,7.6,0,20.07.12,28.98.36,33.38,3.56,1.9,7.13,3.21,10.33,3.21,5.23,0,5.82-2.14,5.82-20.19Z"/>
    <path fill="#280001" d="m899.76,109.74l-19.36,2.85-15.92-.59v.36c0,17.46,6.06,20.67,15.8,20.67,8.43,0,14.14-2.97,17.82-12.23l1.9,1.9c-3.8,12.35-8.31,26.73-29.1,26.73-16.75,0-29.22-8.91-29.22-30.29s13.66-31.6,35.4-31.6c17.94,0,22.81,8.2,22.69,22.21Zm-35.28,1.31l12.71-2.14c1.78-.24,2.61-1.07,2.61-2.97,0-7.96-4.87-14.25-10.21-14.25-4.28,0-5.11,2.73-5.11,19.36Z"/>
  </g>

  <!-- "a stream of thoughts" tagline -->
  <text x="250" y="410" text-anchor="middle" font-family="'Poppins', system-ui, sans-serif" font-size="22" font-style="italic" fill="#48597a">a stream of thoughts</text>
</svg>
