<svg xmlns="http://www.w3.org/2000/svg" viewBox="0 0 873 378" width="873" height="378">
  <!-- MOO Minicard: 873 x 378px full bleed -->
  <!-- Based on the original OG SVG template, scaled to fit minicard -->
  <defs>
    <style>
      .url-text { fill: #48597a; font-family: 'Poppins', system-ui, Helvetica, Arial, sans-serif; font-size: 20px; letter-spacing: 0.5px; }
    </style>
  </defs>

  <!-- White background -->
  <rect width="873" height="378" fill="#ffffff"/>

  <!-- Horizontal logo (mark + wordmark) centered -->
  <!-- Original was at translate(95,30) scale(0.56) in a 700x200 viewBox -->
  <!-- For 873x378: scale up. Original logo group is ~900*0.56=504 wide, ~222*0.56=124 tall -->
  <!-- New scale: 0.7 gives ~630 wide, ~155 tall -->
  <!-- Center X: (873-630)/2=121.5, Center Y: (378-155)/2 - 20 (room for URL) = ~91 -->
  <g transform="translate(122, 80) scale(0.7)">
    <!-- Orange sun/starburst -->
    <path fill="#ea8725" d="m297.09,125.31l.57-1.9c.9-3.01,3.96-4.82,7.03-4.15l6.52,1.43c4.06.89,7.77-2.51,7.23-6.63l-.86-6.62c-.4-3.11,1.66-6.01,4.74-6.65l6.54-1.35c4.07-.84,6.07-5.46,3.91-9l-3.48-5.7c-1.64-2.68-.93-6.17,1.62-8l5.42-3.89c3.37-2.42,3.33-7.46-.09-9.81l-5.49-3.79c-2.59-1.78-3.36-5.26-1.77-7.97l3.37-5.76c2.1-3.58,0-8.16-4.07-8.93l-6.56-1.23c-3.09-.58-5.21-3.44-4.86-6.56l.74-6.63c.46-4.13-3.31-7.46-7.35-6.5l-6.49,1.55c-3.06.73-6.16-1.02-7.11-4.02l-2.02-6.36c-1.26-3.96-6.06-5.47-9.36-2.95l-5.3,4.05c-2.5,1.91-6.04,1.57-8.13-.78l-4.44-4.99c-2.76-3.1-7.76-2.53-9.75,1.12l-3.19,5.86c-1.5,2.76-4.88,3.89-7.74,2.59l-6.08-2.75c-3.78-1.71-8.12.84-8.45,4.98l-.54,6.65c-.25,3.13-2.88,5.54-6.02,5.52l-6.67-.04c-2.32-.01-4.25,1.26-5.27,3.07l67.55,77.85,15.86,18.28Z"/>
    <!-- Blue A-frame -->
    <path fill="#48597a" d="m359.7,197.48l-62.61-72.17-15.86-18.28L213.68,29.18l-20.93-24.12c-5.86-6.75-16.33-6.75-22.19,0l-88.47,101.97L3.62,197.48c-8.25,9.51-1.5,24.31,11.09,24.31h33.87v-28.63c0-32.59,26.42-59,59-59h11.25v-1.48c0-3.94,3.2-7.14,7.14-7.14h59.15c3.94,0,7.14,3.2,7.14,7.14v1.48h63.47c17.39,0,33.03,7.53,43.83,19.5,9.43,10.46,15.17,24.31,15.17,39.5v28.63h33.87c12.59,0,19.34-14.8,11.09-24.31Z"/>
    <!-- Cream camper body -->
    <path fill="#f0e2d5" d="m263.33,197.84c-6.97,0-12.61-5.65-12.61-12.61v-18.94c0-6.97,5.65-12.61,12.61-12.61h36.23c-10.8-11.98-26.43-19.5-43.83-19.5h-63.47v-1.48c0-3.94-3.2-7.14-7.14-7.14h-59.15c-3.94,0-7.14,3.2-7.14,7.14v1.48h-11.25c-32.59,0-59,26.42-59,59v28.63h266.15v-23.95h-51.4Zm-118.38-12.61c0,6.97-5.65,12.61-12.61,12.61h-18.94c-6.97,0-12.61-5.65-12.61-12.61v-18.94c0-6.97,5.65-12.61,12.61-12.61h18.94c6.97,0,12.61,5.65,12.61,12.61v18.94Zm51.05,0c0,6.97-5.65,12.61-12.61,12.61h-18.94c-6.97,0-12.61-5.65-12.61-12.61v-18.94c0-6.97,5.65-12.61,12.61-12.61h18.94c6.97,0,12.61,5.65,12.61,12.61v18.94Z"/>
    <!-- Dark windows -->
    <rect fill="#280001" x="100.78" y="153.67" width="44.17" height="44.17" rx="12.61" ry="12.61"/>
    <rect fill="#280001" x="151.83" y="153.67" width="44.17" height="44.17" rx="12.61" ry="12.61"/>
    <!-- Dark door -->
    <path fill="#280001" d="m250.72,166.28v18.94c0,6.97,5.65,12.61,12.61,12.61h51.4v-4.67c0-15.19-5.74-29.04-15.17-39.5h-36.23c-6.97,0-12.61,5.65-12.61,12.61Z"/>
    <!-- Wordmark "The Tube" -->
    <path fill="#280001" d="m458.61,148.11h-46.92v-3.44l6.3-1.66c5.82-1.54,6.06-3.09,6.06-26.96s-.24-31.83-.71-35.4c-4.99,1.54-7.25,5.34-11.64,14.61l-7.01,15.56h-2.85c.95-11.76,1.07-23.88,1.19-33.97h63.79c.12,10.1.24,22.21,1.19,33.97h-2.85l-7.01-15.56c-4.4-9.15-6.89-12.71-11.64-14.61-.36,3.21-.48,9.03-.48,26.61,0,34.21.95,34.68,6.65,35.99l6.06,1.43-.12,3.44Z"/>
    <path fill="#280001" d="m472.04,79.33v-2.85c9.62-1.54,21.02-4.99,26.73-9.74l1.66.59c-.36,7.48-.83,20.79-.95,37.54h.95c2.02-8.08,11.76-17.46,22.92-17.46,8.79,0,14.97,5.11,14.97,14.73,0,7.13-.24,15.32-.24,22.45,0,17.82.12,18.53,4.51,19.6l2.02.48v3.44h-34.33v-3.44l2.14-.59c4.04-.95,3.92-3.09,3.92-22.21,0-16.75-1.9-18.77-8.55-18.77-4.04,0-7.6,1.43-7.6,7.01,0,32.19.12,32.67,4.16,33.73l2.85.83v3.44h-35.16v-3.44l1.9-.59c4.63-1.66,4.63-3.09,4.63-25.18,0-33.85.36-36.11-2.61-37.65l-3.92-1.9Z"/>
    <path fill="#280001" d="m605.19,109.74l-19.36,2.85-15.92-.59v.36c0,17.46,6.06,20.67,15.8,20.67,8.43,0,14.14-2.97,17.82-12.23l1.9,1.9c-3.8,12.35-8.31,26.73-29.1,26.73-16.75,0-29.22-8.91-29.22-30.29s13.66-31.6,35.4-31.6c17.94,0,22.81,8.2,22.69,22.21Zm-35.28,1.31l12.71-2.14c1.78-.24,2.61-1.07,2.61-2.97,0-7.96-4.87-14.25-10.22-14.25-4.28,0-5.11,2.73-5.11,19.36Z"/>
    <path fill="#280001" d="m684.77,148.11h-46.92v-3.44l6.3-1.66c5.82-1.54,6.06-3.09,6.06-26.96s-.24-31.83-.71-35.4c-4.99,1.54-7.25,5.34-11.64,14.61l-7.01,15.56h-2.85c.95-11.76,1.07-23.88,1.19-33.97h63.79c.12,10.1.24,22.21,1.19,33.97h-2.85l-7.01-15.56c-4.4-9.15-6.89-12.71-11.64-14.61-.36,3.21-.48,9.03-.48,26.61,0,34.21.95,34.68,6.65,35.99l6.06,1.43-.12,3.44Z"/>
    <path fill="#280001" d="m699.62,98.58l-2.85-1.19v-2.85c8.2-1.54,19.84-4.51,25.89-7.01l1.66.59c-.12,6.41-.48,18.65-.48,31.24,0,11.52,2.26,14.25,9.15,14.25,3.44,0,7.01-1.9,7.01-7.01,0-26.25-.12-26.49-3.8-28.27l-2.14-.95v-2.85c9.74-2.14,19.12-4.87,26.49-7.96l1.66.59c-.59,5.7-.59,9.15-.59,26.49,0,25.66,0,28.86,3.68,30.41l2.85,1.19v2.85h-26.84c0-5.94.12-11.76.12-17.7h-.95c-2.49,10.69-12.83,18.89-23.64,18.89-8.91,0-14.85-5.11-14.85-14.73,0-7.13.24-15.2.24-21.14,0-13.18-.24-13.66-2.61-14.85Z"/>
    <path fill="#280001" d="m782.88,142.53c-2.97,3.44-5.58,6.18-5.58,6.18l-2.38-.24c1.07-4.63,1.07-21.26,1.07-35.28,0-29.46.36-30.76-2.61-32.07l-3.92-1.43v-3.21c14.25-2.85,22.09-4.99,26.73-9.74l1.78.47c-.59,10.57-.95,24.71-1.07,35.87h.95c1.9-6.77,11.28-15.68,21.26-15.68,12.59,0,18.05,7.72,18.05,25.78,0,20.79-13.07,36.11-29.93,36.11-8.55,0-17.94-3.21-24.35-6.77Zm31.36-17.22c0-16.87-1.66-23.99-9.15-23.99-3.92,0-7.36,1.54-7.36,7.6,0,20.07.12,28.98.36,33.38,3.56,1.9,7.13,3.21,10.33,3.21,5.23,0,5.82-2.14,5.82-20.19Z"/>
    <path fill="#280001" d="m899.76,109.74l-19.36,2.85-15.92-.59v.36c0,17.46,6.06,20.67,15.8,20.67,8.43,0,14.14-2.97,17.82-12.23l1.9,1.9c-3.8,12.35-8.31,26.73-29.1,26.73-16.75,0-29.22-8.91-29.22-30.29s13.66-31.6,35.4-31.6c17.94,0,22.81,8.2,22.69,22.21Zm-35.28,1.31l12.71-2.14c1.78-.24,2.61-1.07,2.61-2.97,0-7.96-4.87-14.25-10.21-14.25-4.28,0-5.11,2.73-5.11,19.36Z"/>
  </g>

  <!-- URL below the wordmark, centered under "The Tube" text portion -->
  <!-- In the OG, URL was at x=420 in a 700-wide viewBox = 60% across -->
  <!-- At scale 0.7: the wordmark center is roughly at 122 + 630*0.6 = 500 -->
  <text class="url-text" x="500" y="260" text-anchor="middle">thetube.today</text>
</svg>
