<svg xmlns="http://www.w3.org/2000/svg" viewBox="0 0 873 378" width="873" height="378">
  <!-- MOO Minicard: 873 x 378px full bleed -->
  <defs>
    <style>
      .card-bg { fill: #ffffff; }
      .logo-house { fill: #48597a; }
      .logo-dark { fill: #280001; }
      .logo-accent { fill: #ea8725; }
      .url-text { 
        font-family: 'Poppins', system-ui, Helvetica, Arial, sans-serif;
        font-size: 32px;
        font-weight: 400;
        fill: #2a0002;
        letter-spacing: 0.5px;
      }
    </style>
  </defs>

  <!-- White background -->
  <rect class="card-bg" width="873" height="378"/>

  <!-- Logo mark — centered, scaled to ~90px tall -->
  <!-- 900*0.16=144 wide, 549*0.16=87.8 tall -->
  <!-- Center X: (873-144)/2=364.5, Y at ~95 -->
  <g transform="translate(364, 95) scale(0.16)">
    <path class="logo-house" d="m891.03,489.19l-155.1-178.77-39.29-45.28-167.32-192.86-51.84-59.75c-14.5-16.72-40.45-16.72-54.96,0l-219.16,252.6L8.97,489.19c-20.44,23.55-3.7,60.22,27.48,60.22h83.91v-70.92c0-80.72,65.43-146.15,146.15-146.15h27.86v-3.67c0-9.77,7.92-17.69,17.69-17.69h146.51c9.77,0,17.69,7.92,17.69,17.69v3.67h157.23c43.09,0,81.82,18.65,108.57,48.31,23.36,25.91,37.58,60.21,37.58,97.84v70.92h83.91c31.18,0,47.91-36.66,27.48-60.22Z"/>
    <path class="logo-dark" d="m652.31,490.07c-17.26,0-31.25-13.99-31.25-31.25v-46.92c0-17.26,13.99-31.25,31.25-31.25h89.75c-26.75-29.67-65.48-48.31-108.57-48.31h-157.23v-3.67c0-9.77-7.92-17.69-17.69-17.69h-146.51c-9.77,0-17.69,7.92-17.69,17.69v3.67h-27.86c-80.72,0-146.15,65.44-146.15,146.15v70.92h659.29v-59.34h-127.33Zm-293.25-31.25c0,17.26-13.99,31.25-31.25,31.25h-46.92c-17.26,0-31.25-13.99-31.25-31.25v-46.92c0-17.26,13.99-31.25,31.25-31.25h46.92c17.26,0,31.25,13.99,31.25,31.25v46.92Zm126.47,0c0,17.26-13.99,31.25-31.25,31.25h-46.92c-17.26,0-31.25-13.99-31.25-31.25v-46.92c0-17.26,13.99-31.25,31.25-31.25h46.92c17.26,0,31.25,13.99,31.25,31.25v46.92Z"/>
    <rect class="logo-accent" x="249.64" y="380.65" width="109.42" height="109.42" rx="31.25" ry="31.25"/>
    <rect class="logo-accent" x="376.11" y="380.65" width="109.42" height="109.42" rx="31.25" ry="31.25"/>
    <path class="logo-accent" d="m621.06,411.9v46.92c0,17.26,13.99,31.25,31.25,31.25h127.33v-11.58c0-37.63-14.22-71.93-37.58-97.84h-89.75c-17.26,0-31.25,13.99-31.25,31.25Z"/>
  </g>

  <!-- URL text — centered below logo -->
  <text class="url-text" x="436.5" y="260" text-anchor="middle">theTube.today</text>
</svg>
