<svg xmlns="http://www.w3.org/2000/svg" viewBox="0 0 700 400" width="700" height="400">
  <defs>
    <style>
      .bg { fill: #280001; }
      .logo-orange { fill: #ea8725; }
      .logo-navy { fill: #48597a; }
      .logo-cream { fill: #f0e2d5; }
      .logo-dark { fill: #280001; }
      .url-text { fill: #f0e2d5; font-family: Georgia, serif; font-size: 22px; letter-spacing: 1px; }
    </style>
  </defs>

  <!-- Card background -->
  <rect class="bg" width="700" height="400" rx="12" ry="12"/>

  <!-- Logo mark (simplified/scaled from brand) centered -->
  <g transform="translate(220, 60) scale(0.29)">
    <path class="logo-orange" d="m735.92,310.42l1.41-4.71c2.22-7.46,9.82-11.94,17.42-10.27l16.15,3.54c10.05,2.2,19.24-6.23,17.92-16.43l-2.13-16.39c-1-7.72,4.12-14.9,11.74-16.47l16.19-3.34c10.08-2.08,15.04-13.52,9.68-22.3l-8.61-14.11c-4.05-6.64-2.3-15.29,4.02-19.82l13.43-9.63c8.36-6,8.25-18.47-.22-24.31l-13.61-9.39c-6.4-4.42-8.32-13.03-4.39-19.74l8.35-14.27c5.2-8.88.02-20.23-10.09-22.12l-16.25-3.04c-7.65-1.43-12.9-8.52-12.04-16.25l1.83-16.43c1.14-10.23-8.21-18.49-18.22-16.1l-16.08,3.83c-7.57,1.8-15.25-2.54-17.61-9.95l-5.01-15.75c-3.12-9.8-15.02-13.55-23.19-7.3l-13.13,10.04c-6.18,4.73-14.96,3.88-20.13-1.93l-10.99-12.35c-6.84-7.69-19.23-6.27-24.15,2.76l-7.91,14.51c-3.72,6.83-12.09,9.63-19.18,6.43l-15.06-6.82c-9.37-4.24-20.12,2.09-20.94,12.35l-1.33,16.48c-.62,7.76-7.12,13.72-14.91,13.67l-16.53-.1c-5.75-.04-10.54,3.12-13.06,7.6l167.32,192.86,39.29,45.28Z"/>
    <path class="logo-navy" d="m891.03,489.19l-155.1-178.77-39.29-45.28-167.32-192.86-51.84-59.75c-14.5-16.72-40.45-16.72-54.96,0l-219.16,252.6L8.97,489.19c-20.44,23.55-3.7,60.22,27.48,60.22h83.91v-70.92c0-80.72,65.43-146.15,146.15-146.15h27.86v-3.67c0-9.77,7.92-17.69,17.69-17.69h146.51c9.77,0,17.69,7.92,17.69,17.69v3.67h157.23c43.09,0,81.82,18.65,108.57,48.31,23.36,25.91,37.58,60.21,37.58,97.84v70.92h83.91c31.18,0,47.91-36.66,27.48-60.22Z"/>
    <path class="logo-cream" d="m652.31,490.07c-17.26,0-31.25-13.99-31.25-31.25v-46.92c0-17.26,13.99-31.25,31.25-31.25h89.75c-26.75-29.67-65.48-48.31-108.57-48.31h-157.23v-3.67c0-9.77-7.92-17.69-17.69-17.69h-146.51c-9.77,0-17.69,7.92-17.69,17.69v3.67h-27.86c-80.72,0-146.15,65.44-146.15,146.15v70.92h659.29v-59.34h-127.33Zm-293.25-31.25c0,17.26-13.99,31.25-31.25,31.25h-46.92c-17.26,0-31.25-13.99-31.25-31.25v-46.92c0-17.26,13.99-31.25,31.25-31.25h46.92c17.26,0,31.25,13.99,31.25,31.25v46.92Zm126.47,0c0,17.26-13.99,31.25-31.25,31.25h-46.92c-17.26,0-31.25-13.99-31.25-31.25v-46.92c0-17.26,13.99-31.25,31.25-31.25h46.92c17.26,0,31.25,13.99,31.25,31.25v46.92Z"/>
    <rect class="logo-dark" x="249.64" y="380.65" width="109.42" height="109.42" rx="31.25" ry="31.25"/>
    <rect class="logo-dark" x="376.11" y="380.65" width="109.42" height="109.42" rx="31.25" ry="31.25"/>
    <path class="logo-dark" d="m621.06,411.9v46.92c0,17.26,13.99,31.25,31.25,31.25h127.33v-11.58c0-37.63-14.22-71.93-37.58-97.84h-89.75c-17.26,0-31.25,13.99-31.25,31.25Z"/>
  </g>

  <!-- URL text -->
  <text class="url-text" x="350" y="330" text-anchor="middle">theTube.today</text>
</svg>
