<?xml version="1.0" encoding="UTF-8"?><svg id="Layer_1" xmlns="http://www.w3.org/2000/svg" viewBox="0 0 900 221.79"><defs><style>.cls-1{fill:#f0e2d5;}.cls-2{fill:#ea8725;}.cls-3{fill:#48597a;}.cls-4{fill:#280001;}</style></defs><path class="cls-4" d="m458.61,148.11h-46.92v-3.44l6.3-1.66c5.82-1.54,6.06-3.09,6.06-26.96s-.24-31.83-.71-35.4c-4.99,1.54-7.25,5.34-11.64,14.61l-7.01,15.56h-2.85c.95-11.76,1.07-23.88,1.19-33.97h63.79c.12,10.1.24,22.21,1.19,33.97h-2.85l-7.01-15.56c-4.4-9.15-6.89-12.71-11.64-14.61-.36,3.21-.48,9.03-.48,26.61,0,34.21.95,34.68,6.65,35.99l6.06,1.43-.12,3.44Z"/><path class="cls-4" d="m472.04,79.33v-2.85c9.62-1.54,21.02-4.99,26.73-9.74l1.66.59c-.36,7.48-.83,20.79-.95,37.54h.95c2.02-8.08,11.76-17.46,22.92-17.46,8.79,0,14.97,5.11,14.97,14.73,0,7.13-.24,15.32-.24,22.45,0,17.82.12,18.53,4.51,19.6l2.02.48v3.44h-34.33v-3.44l2.14-.59c4.04-.95,3.92-3.09,3.92-22.21,0-16.75-1.9-18.77-8.55-18.77-4.04,0-7.6,1.43-7.6,7.01,0,32.19.12,32.67,4.16,33.73l2.85.83v3.44h-35.16v-3.44l1.9-.59c4.63-1.66,4.63-3.09,4.63-25.18,0-33.85.36-36.11-2.61-37.65l-3.92-1.9Z"/><path class="cls-4" d="m605.19,109.74l-19.36,2.85-15.92-.59v.36c0,17.46,6.06,20.67,15.8,20.67,8.43,0,14.14-2.97,17.82-12.23l1.9,1.9c-3.8,12.35-8.31,26.73-29.1,26.73-16.75,0-29.22-8.91-29.22-30.29s13.66-31.6,35.4-31.6c17.94,0,22.81,8.2,22.69,22.21Zm-35.28,1.31l12.71-2.14c1.78-.24,2.61-1.07,2.61-2.97,0-7.96-4.87-14.25-10.22-14.25-4.28,0-5.11,2.73-5.11,19.36Z"/><path class="cls-4" d="m684.77,148.11h-46.92v-3.44l6.3-1.66c5.82-1.54,6.06-3.09,6.06-26.96s-.24-31.83-.71-35.4c-4.99,1.54-7.25,5.34-11.64,14.61l-7.01,15.56h-2.85c.95-11.76,1.07-23.88,1.19-33.97h63.79c.12,10.1.24,22.21,1.19,33.97h-2.85l-7.01-15.56c-4.4-9.15-6.89-12.71-11.64-14.61-.36,3.21-.48,9.03-.48,26.61,0,34.21.95,34.68,6.65,35.99l6.06,1.43-.12,3.44Z"/><path class="cls-4" d="m699.62,98.58l-2.85-1.19v-2.85c8.2-1.54,19.84-4.51,25.89-7.01l1.66.59c-.12,6.41-.48,18.65-.48,31.24,0,11.52,2.26,14.25,9.15,14.25,3.44,0,7.01-1.9,7.01-7.01,0-26.25-.12-26.49-3.8-28.27l-2.14-.95v-2.85c9.74-2.14,19.12-4.87,26.49-7.96l1.66.59c-.59,5.7-.59,9.15-.59,26.49,0,25.66,0,28.86,3.68,30.41l2.85,1.19v2.85h-26.84c0-5.94.12-11.76.12-17.7h-.95c-2.49,10.69-12.83,18.89-23.64,18.89-8.91,0-14.85-5.11-14.85-14.73,0-7.13.24-15.2.24-21.14,0-13.18-.24-13.66-2.61-14.85Z"/><path class="cls-4" d="m782.88,142.53c-2.97,3.44-5.58,6.18-5.58,6.18l-2.38-.24c1.07-4.63,1.07-21.26,1.07-35.28,0-29.46.36-30.76-2.61-32.07l-3.92-1.43v-3.21c14.25-2.85,22.09-4.99,26.73-9.74l1.78.47c-.59,10.57-.95,24.71-1.07,35.87h.95c1.9-6.77,11.28-15.68,21.26-15.68,12.59,0,18.05,7.72,18.05,25.78,0,20.79-13.07,36.11-29.93,36.11-8.55,0-17.94-3.21-24.35-6.77Zm31.36-17.22c0-16.87-1.66-23.99-9.15-23.99-3.92,0-7.36,1.54-7.36,7.6,0,20.07.12,28.98.36,33.38,3.56,1.9,7.13,3.21,10.33,3.21,5.23,0,5.82-2.14,5.82-20.19Z"/><path class="cls-4" d="m899.76,109.74l-19.36,2.85-15.92-.59v.36c0,17.46,6.06,20.67,15.8,20.67,8.43,0,14.14-2.97,17.82-12.23l1.9,1.9c-3.8,12.35-8.31,26.73-29.1,26.73-16.75,0-29.22-8.91-29.22-30.29s13.66-31.6,35.4-31.6c17.94,0,22.81,8.2,22.69,22.21Zm-35.28,1.31l12.71-2.14c1.78-.24,2.61-1.07,2.61-2.97,0-7.96-4.87-14.25-10.21-14.25-4.28,0-5.11,2.73-5.11,19.36Z"/><path class="cls-3" d="m419.04,211.22c1.29,0,3.4-2.43,5.61-6.74l.22.22c-2,4.58-4.48,8.04-6.96,8.04-.97,0-1.67-.81-1.67-2.59,0-4.37,2.7-13.75,4.21-18.34l-.32-.16c-7.07,14.99-10.84,21.09-15.1,21.09-2.16,0-3.18-1.51-3.18-4.96,0-9.71,8.14-21.14,21.47-20.93-1.46,4.58-5.12,17.85-5.12,22.81,0,.97.32,1.56.86,1.56Zm2.21-23.73c-11.97,1.35-17.53,12.57-17.53,20.17,0,2.91.76,3.61,2.05,3.61,2.59,0,7.71-4.85,15.48-23.79Z"/><path class="cls-3" d="m438.13,193.26c0-3.78,3.67-6.42,8.74-6.42,3.29,0,5.07,1.46,5.07,3.61,0,.43,0,.81-.11,1.19l-.32.05c-1.73-2.75-3.83-4.05-6.69-4.05-2.7,0-5.18,2.32-5.18,4.58,0,4.58,10.03,9.22,10.03,14.19,0,3.51-3.4,6.31-9.06,6.31-4.91,0-7.28-1.89-7.28-4.53,0-.38.05-.76.16-1.13l.32-.05c1.56,2.86,5.02,4.64,9.12,4.64,3.29,0,5.02-1.35,5.02-4.48,0-4.58-9.82-8.74-9.82-13.92Z"/><path class="cls-3" d="m460.89,187.92h-3.51l.11-.59h3.51c1.08-.76,2.05-2.97,3.18-6.8h.38c-.49,1.89-1.08,4.26-1.73,6.8h7.34l-.11.59h-7.39c-2.21,8.63-4.91,19.2-4.91,21.68,0,1.02.32,1.56,1.35,1.56,2,0,4.53-2.54,7.23-7.55l.22.22c-2.37,5.23-5.45,8.9-8.52,8.9-1.4,0-2.27-.81-2.27-2.59,0-3.24,3.18-13.86,5.12-22.22Z"/><path class="cls-3" d="m470.65,212.19c1.24-3.72,5.39-17.8,5.39-22.38,0-.97-.32-1.51-.86-1.51-1.29,0-3.34,2.43-5.61,6.69l-.22-.16c2-4.64,4.42-8.04,6.96-8.04.97,0,1.67.76,1.67,2.53,0,3.29-2.91,13.43-4.48,18.23l.22.11c6.09-16.4,10.46-20.82,13.05-20.82,1.02,0,1.4.86,1.4,2-2.91-.27-7.87.11-15.64,23.35h-1.89Z"/><path class="cls-3" d="m490.66,197.9c-.59,2.05-.92,4.26-.92,6.31,0,4.53,2.27,7.23,4.91,7.23,3.72,0,6.58-3.67,8.95-8.09l.32.22c-2.91,5.77-6.15,9.17-10.14,9.17-3.45,0-6.04-3.29-6.04-8.04,0-8.04,5.02-17.91,14.02-17.91,2.37,0,3.61,1.08,3.61,2.75,0,2.86-5.29,6.63-14.72,8.36Zm.05-.32c8.63-2.1,12.84-5.29,12.84-7.82,0-1.35-1.02-2.32-3.07-2.32-4.64,0-8.14,4.69-9.76,10.14Z"/><path class="cls-3" d="m525.02,211.22c1.29,0,3.4-2.43,5.61-6.74l.22.22c-2,4.58-4.48,8.04-6.96,8.04-.97,0-1.67-.81-1.67-2.59,0-4.37,2.7-13.75,4.21-18.34l-.32-.16c-7.07,14.99-10.84,21.09-15.1,21.09-2.16,0-3.18-1.51-3.18-4.96,0-9.71,8.14-21.14,21.47-20.93-1.46,4.58-5.12,17.85-5.12,22.81,0,.97.32,1.56.86,1.56Zm2.21-23.73c-11.97,1.35-17.53,12.57-17.53,20.17,0,2.91.76,3.61,2.05,3.61,2.59,0,7.71-4.85,15.48-23.79Z"/><path class="cls-3" d="m565.36,211.22c1.29,0,3.4-2.43,5.61-6.74l.22.22c-2,4.58-4.48,8.04-6.96,8.04-1.02,0-1.67-.81-1.67-2.59,0-4.05,5.18-16.72,5.18-20.5,0-.92-.54-1.4-1.62-1.4-3.13,0-9.12,4.31-15.96,23.95h-1.94c1.46-5.66,5.23-19.04,5.23-22.6,0-.92-.54-1.35-1.62-1.35-3.07,0-8.79,4.37-15.64,23.95h-1.89c1.24-4.37,5.39-18.28,5.39-22.33,0-.97-.32-1.56-.92-1.56-1.24,0-3.29,2.43-5.56,6.74l-.22-.22c2-4.58,4.48-8.04,6.96-8.04.97,0,1.67.81,1.67,2.59,0,3.29-2.86,13.27-4.42,18.12l.22.11c6.15-15.32,10.63-20.77,15.05-20.77,2.1,0,2.75,1.08,2.75,2.27,0,3.29-2.75,12.94-4.15,18.39l.27.11c6.26-15.37,10.89-20.77,15.43-20.77,2.1,0,2.8,1.08,2.8,2.27,0,4.1-5.07,16.18-5.07,20.55,0,.97.32,1.56.86,1.56Z"/><path class="cls-3" d="m582.62,204.48c0-10.41,6.31-17.69,12.46-17.69,3.99,0,6.74,2.53,6.74,8.2,0,9.92-6.31,17.74-12.46,17.74-3.99,0-6.74-2.59-6.74-8.25Zm2.05-.43c0,5.61,1.89,7.98,5.5,7.98,4.96,0,9.6-8.41,9.6-16.61,0-5.56-1.83-7.98-5.5-7.98-5.02,0-9.6,8.04-9.6,16.61Z"/><path class="cls-3" d="m610.29,187.92h-4.21l.16-.59h4.1c.97-8.68,3.88-11.76,8.04-11.76,1.94,0,2.48.81,2.64,1.78-.81-.16-1.83-.16-2.75-.16-3.83,0-6.58,2.32-6.58,6.58,0,1.4.11,1.94.43,3.56h6.15l-.11.59h-6.09c-.7,7.07-2.59,21.03-4.31,28.05-.97,3.94-3.51,5.61-7.98,5.83l-.05-.49c3.51-.27,5.23-2.05,6.04-5.18,1.78-6.74,3.56-19.58,4.53-28.21Z"/><path class="cls-3" d="m634.02,187.92h-3.51l.11-.59h3.51c1.08-.76,2.05-2.97,3.18-6.8h.38c-.49,1.89-1.08,4.26-1.73,6.8h7.34l-.11.59h-7.39c-2.21,8.63-4.91,19.2-4.91,21.68,0,1.02.32,1.56,1.35,1.56,2,0,4.53-2.54,7.23-7.55l.22.22c-2.37,5.23-5.45,8.9-8.52,8.9-1.4,0-2.27-.81-2.27-2.59,0-3.24,3.18-13.86,5.12-22.22Z"/><path class="cls-3" d="m649.17,177.03c-1.29,0-3.34,2.43-5.56,6.74l-.27-.22c2.05-4.58,4.53-8.04,7.01-8.04.97,0,1.67.81,1.67,2.59,0,5.18-4.64,22.11-6.96,29.39l.27.11c6.26-15.43,10.89-20.77,15.48-20.77,2.05,0,2.8,1.02,2.8,2.21,0,4.15-5.07,16.23-5.12,20.6.05.97.32,1.56.92,1.56,1.29,0,3.34-2.43,5.61-6.74l.22.22c-2.05,4.58-4.53,8.04-7.01,8.04-.97,0-1.67-.81-1.67-2.59,0-4.1,5.18-16.77,5.18-20.55,0-.92-.49-1.4-1.56-1.4-3.13,0-9.12,4.31-16.02,24h-1.94c1.94-6.69,7.87-27.94,7.87-33.6,0-.97-.32-1.56-.92-1.56Z"/><path class="cls-3" d="m668.48,204.48c0-10.41,6.31-17.69,12.46-17.69,3.99,0,6.74,2.53,6.74,8.2,0,9.92-6.31,17.74-12.46,17.74-3.99,0-6.74-2.59-6.74-8.25Zm2.05-.43c0,5.61,1.89,7.98,5.5,7.98,4.96,0,9.6-8.41,9.6-16.61,0-5.56-1.83-7.98-5.5-7.98-5.02,0-9.6,8.04-9.6,16.61Z"/><path class="cls-3" d="m710.71,191.97l-.27-.11c-6.2,15.43-10.84,20.77-15.43,20.77-2.05,0-2.8-1.02-2.8-2.21,0-4.15,5.12-16.23,5.12-20.6,0-.97-.32-1.51-.92-1.51-1.29,0-3.34,2.37-5.56,6.69l-.27-.16c2-4.58,4.53-8.04,7.01-8.04,1.02,0,1.67.81,1.67,2.53,0,4.1-5.18,16.99-5.18,20.55,0,.92.49,1.4,1.56,1.4,3.13,0,9.12-4.31,15.96-23.95h1.94c-1.24,4.37-5.34,18.28-5.34,22.33,0,.97.32,1.56.86,1.56,1.29,0,3.34-2.43,5.61-6.74l.22.22c-2,4.58-4.48,8.04-7.01,8.04-.97,0-1.67-.81-1.67-2.59,0-3.29,2.86-13.27,4.48-18.18Z"/><path class="cls-3" d="m722.68,220.01c6.47,0,7.71-.97,9.33-8.74.54-2.97,1.13-5.99,1.78-8.9.86-4.21,1.73-7.98,2.53-10.57l-.32-.16c-7.12,14.94-10.9,20.93-15.16,20.93-2.16,0-3.18-1.46-3.18-4.8,0-10.09,8.52-20.98,21.47-20.93-1.56,5.07-3.88,16.4-4.58,20.98-1.24,8.25-4.85,13.92-13.43,13.92-4.42,0-6.26-1.02-6.15-2.86,2.21.59,5.18,1.13,7.71,1.13Zm14.51-32.68c-11.6,1.19-17.64,12.3-17.64,20.28,0,2.86.7,3.56,2.05,3.56,2.64,0,7.82-4.96,15.59-23.84Z"/><path class="cls-3" d="m748.14,177.03c-1.29,0-3.34,2.43-5.56,6.74l-.27-.22c2.05-4.58,4.53-8.04,7.01-8.04.97,0,1.67.81,1.67,2.59,0,5.18-4.64,22.11-6.96,29.39l.27.11c6.26-15.43,10.89-20.77,15.48-20.77,2.05,0,2.8,1.02,2.8,2.21,0,4.15-5.07,16.23-5.12,20.6.05.97.32,1.56.92,1.56,1.29,0,3.34-2.43,5.61-6.74l.22.22c-2.05,4.58-4.53,8.04-7.01,8.04-.97,0-1.67-.81-1.67-2.59,0-4.1,5.18-16.77,5.18-20.55,0-.92-.49-1.4-1.56-1.4-3.13,0-9.12,4.31-16.02,24h-1.94c1.94-6.69,7.87-27.94,7.87-33.6,0-.97-.32-1.56-.92-1.56Z"/><path class="cls-3" d="m773.16,187.92h-3.51l.11-.59h3.51c1.08-.76,2.05-2.97,3.18-6.8h.38c-.49,1.89-1.08,4.26-1.73,6.8h7.33l-.11.59h-7.39c-2.21,8.63-4.91,19.2-4.91,21.68,0,1.02.32,1.56,1.35,1.56,2,0,4.53-2.54,7.23-7.55l.22.22c-2.37,5.23-5.45,8.9-8.52,8.9-1.4,0-2.27-.81-2.27-2.59,0-3.24,3.18-13.86,5.12-22.22Z"/><path class="cls-3" d="m784.59,193.26c0-3.78,3.67-6.42,8.74-6.42,3.29,0,5.07,1.46,5.07,3.61,0,.43,0,.81-.11,1.19l-.32.05c-1.73-2.75-3.83-4.05-6.69-4.05-2.7,0-5.18,2.32-5.18,4.58,0,4.58,10.03,9.22,10.03,14.19,0,3.51-3.4,6.31-9.06,6.31-4.91,0-7.28-1.89-7.28-4.53,0-.38.05-.76.16-1.13l.32-.05c1.56,2.86,5.02,4.64,9.12,4.64,3.29,0,5.02-1.35,5.02-4.48,0-4.58-9.82-8.74-9.82-13.92Z"/><path class="cls-2" d="m297.09,125.31l.57-1.9c.9-3.01,3.96-4.82,7.03-4.15l6.52,1.43c4.06.89,7.77-2.51,7.23-6.63l-.86-6.62c-.4-3.11,1.66-6.01,4.74-6.65l6.54-1.35c4.07-.84,6.07-5.46,3.91-9l-3.48-5.7c-1.64-2.68-.93-6.17,1.62-8l5.42-3.89c3.37-2.42,3.33-7.46-.09-9.81l-5.49-3.79c-2.59-1.78-3.36-5.26-1.77-7.97l3.37-5.76c2.1-3.58,0-8.16-4.07-8.93l-6.56-1.23c-3.09-.58-5.21-3.44-4.86-6.56l.74-6.63c.46-4.13-3.31-7.46-7.35-6.5l-6.49,1.55c-3.06.73-6.16-1.02-7.11-4.02l-2.02-6.36c-1.26-3.96-6.06-5.47-9.36-2.95l-5.3,4.05c-2.5,1.91-6.04,1.57-8.13-.78l-4.44-4.99c-2.76-3.1-7.76-2.53-9.75,1.12l-3.19,5.86c-1.5,2.76-4.88,3.89-7.74,2.59l-6.08-2.75c-3.78-1.71-8.12.84-8.45,4.98l-.54,6.65c-.25,3.13-2.88,5.54-6.02,5.52l-6.67-.04c-2.32-.01-4.25,1.26-5.27,3.07l67.55,77.85,15.86,18.28Z"/><path class="cls-3" d="m359.7,197.48l-62.61-72.17-15.86-18.28L213.68,29.18l-20.93-24.12c-5.86-6.75-16.33-6.75-22.19,0l-88.47,101.97L3.62,197.48c-8.25,9.51-1.5,24.31,11.09,24.31h33.87v-28.63c0-32.59,26.42-59,59-59h11.25v-1.48c0-3.94,3.2-7.14,7.14-7.14h59.15c3.94,0,7.14,3.2,7.14,7.14v1.48h63.47c17.39,0,33.03,7.53,43.83,19.5,9.43,10.46,15.17,24.31,15.17,39.5v28.63h33.87c12.59,0,19.34-14.8,11.09-24.31Z"/><path class="cls-1" d="m263.33,197.84c-6.97,0-12.61-5.65-12.61-12.61v-18.94c0-6.97,5.65-12.61,12.61-12.61h36.23c-10.8-11.98-26.43-19.5-43.83-19.5h-63.47v-1.48c0-3.94-3.2-7.14-7.14-7.14h-59.15c-3.94,0-7.14,3.2-7.14,7.14v1.48h-11.25c-32.59,0-59,26.42-59,59v28.63h266.15v-23.95h-51.4Zm-118.38-12.61c0,6.97-5.65,12.61-12.61,12.61h-18.94c-6.97,0-12.61-5.65-12.61-12.61v-18.94c0-6.97,5.65-12.61,12.61-12.61h18.94c6.97,0,12.61,5.65,12.61,12.61v18.94Zm51.05,0c0,6.97-5.65,12.61-12.61,12.61h-18.94c-6.97,0-12.61-5.65-12.61-12.61v-18.94c0-6.97,5.65-12.61,12.61-12.61h18.94c6.97,0,12.61,5.65,12.61,12.61v18.94Z"/><rect class="cls-4" x="100.78" y="153.67" width="44.17" height="44.17" rx="12.61" ry="12.61"/><rect class="cls-4" x="151.83" y="153.67" width="44.17" height="44.17" rx="12.61" ry="12.61"/><path class="cls-4" d="m250.72,166.28v18.94c0,6.97,5.65,12.61,12.61,12.61h51.4v-4.67c0-15.19-5.74-29.04-15.17-39.5h-36.23c-6.97,0-12.61,5.65-12.61,12.61Z"/></svg>