<?xml version="1.0" encoding="UTF-8"?><svg id="Layer_1" xmlns="http://www.w3.org/2000/svg" viewBox="0 0 900 280.12"><defs><style>.cls-1{fill:#48597a;}.cls-2{fill:#280001;}</style></defs><path class="cls-2" d="m102.58,147H17.81v-6.22l11.37-3c10.52-2.79,10.94-5.58,10.94-48.71s-.43-57.51-1.29-63.95c-9.01,2.79-13.09,9.66-21.03,26.39l-12.66,28.11H0c1.72-21.24,1.93-43.13,2.15-61.37h115.24c.21,18.24.43,40.13,2.15,61.37h-5.15l-12.66-28.11c-7.94-16.52-12.45-22.96-21.03-26.39-.64,5.79-.86,16.31-.86,48.07,0,61.8,1.72,62.66,12.02,65.02l10.94,2.58-.21,6.22Z"/><path class="cls-2" d="m126.82,22.75v-5.15c17.38-2.79,37.98-9.01,48.28-17.6l3,1.07c-.64,13.52-1.5,37.55-1.72,67.81h1.72c3.65-14.59,21.24-31.55,41.42-31.55,15.88,0,27.04,9.23,27.04,26.61,0,12.88-.43,27.68-.43,40.56,0,32.19.21,33.48,8.15,35.41l3.65.86v6.22h-62.02v-6.22l3.86-1.07c7.3-1.72,7.08-5.58,7.08-40.13,0-30.26-3.43-33.91-15.45-33.91-7.3,0-13.73,2.58-13.73,12.66,0,58.16.21,59.01,7.51,60.94l5.15,1.5v6.22h-63.52v-6.22l3.43-1.07c8.37-3,8.37-5.58,8.37-45.49,0-61.16.64-65.24-4.72-68.03l-7.08-3.43Z"/><path class="cls-2" d="m367.38,77.68l-34.98,5.15-28.76-1.07v.64c0,31.54,10.94,37.34,28.54,37.34,15.24,0,25.54-5.36,32.19-22.1l3.43,3.43c-6.87,22.32-15.02,48.28-52.58,48.28-30.26,0-52.79-16.09-52.79-54.72s24.68-57.08,63.95-57.08c32.4,0,41.2,14.81,40.99,40.13Zm-63.73,2.36l22.96-3.86c3.22-.43,4.72-1.93,4.72-5.36,0-14.38-8.8-25.75-18.46-25.75-7.73,0-9.23,4.94-9.23,34.98Z"/><path class="cls-2" d="m511.16,147h-84.76v-6.22l11.37-3c10.52-2.79,10.94-5.58,10.94-48.71s-.43-57.51-1.29-63.95c-9.01,2.79-13.09,9.66-21.03,26.39l-12.66,28.11h-5.15c1.72-21.24,1.93-43.13,2.15-61.37h115.24c.21,18.24.43,40.13,2.15,61.37h-5.15l-12.66-28.11c-7.94-16.52-12.45-22.96-21.03-26.39-.64,5.79-.86,16.31-.86,48.07,0,61.8,1.72,62.66,12.02,65.02l10.94,2.58-.21,6.22Z"/><path class="cls-2" d="m537.98,57.51l-5.15-2.15v-5.15c14.81-2.79,35.84-8.15,46.78-12.66l3,1.07c-.21,11.59-.86,33.69-.86,56.44,0,20.82,4.08,25.75,16.52,25.75,6.22,0,12.66-3.43,12.66-12.66,0-47.42-.21-47.85-6.87-51.07l-3.86-1.72v-5.15c17.6-3.86,34.55-8.8,47.85-14.38l3,1.07c-1.07,10.3-1.07,16.52-1.07,47.85,0,46.35,0,52.15,6.65,54.94l5.15,2.15v5.15h-48.5c0-10.73.21-21.24.21-31.97h-1.72c-4.51,19.31-23.18,34.12-42.7,34.12-16.09,0-26.82-9.23-26.82-26.61,0-12.88.43-27.47.43-38.2,0-23.82-.43-24.68-4.72-26.82Z"/><path class="cls-2" d="m688.41,136.91c-5.37,6.22-10.09,11.16-10.09,11.16l-4.29-.43c1.93-8.37,1.93-38.41,1.93-63.73,0-53.22.64-55.58-4.72-57.94l-7.08-2.58v-5.79c25.75-5.15,39.91-9.01,48.28-17.6l3.22.86c-1.07,19.1-1.72,44.64-1.93,64.81h1.72c3.43-12.23,20.39-28.33,38.41-28.33,22.75,0,32.62,13.95,32.62,46.57,0,37.55-23.61,65.24-54.08,65.24-15.45,0-32.4-5.79-43.99-12.23Zm56.65-31.12c0-30.47-3-43.35-16.52-43.35-7.08,0-13.3,2.79-13.3,13.73,0,36.27.21,52.36.64,60.3,6.44,3.43,12.88,5.79,18.67,5.79,9.44,0,10.51-3.86,10.51-36.48Z"/><path class="cls-2" d="m899.57,77.68l-34.98,5.15-28.76-1.07v.64c0,31.54,10.94,37.34,28.54,37.34,15.24,0,25.54-5.36,32.19-22.1l3.43,3.43c-6.87,22.32-15.02,48.28-52.58,48.28-30.26,0-52.79-16.09-52.79-54.72s24.68-57.08,63.95-57.08c32.4,0,41.2,14.81,40.99,40.13Zm-63.73,2.36l22.96-3.86c3.22-.43,4.72-1.93,4.72-5.36,0-14.38-8.8-25.75-18.45-25.75-7.73,0-9.23,4.94-9.23,34.98Z"/><path class="cls-1" d="m122.86,261.02c2.34,0,6.14-4.38,10.13-12.18l.39.39c-3.61,8.28-8.09,14.52-12.57,14.52-1.75,0-3.02-1.46-3.02-4.68,0-7.89,4.87-24.85,7.6-33.13l-.58-.29c-12.76,27.09-19.59,38.1-27.28,38.1-3.9,0-5.75-2.73-5.75-8.96,0-17.54,14.71-38.2,38.78-37.81-2.63,8.28-9.26,32.25-9.26,41.22,0,1.75.59,2.83,1.56,2.83Zm4-42.87c-21.63,2.44-31.67,22.7-31.67,36.44,0,5.26,1.36,6.53,3.7,6.53,4.68,0,13.93-8.77,27.97-42.97Z"/><path class="cls-1" d="m157.35,228.57c0-6.82,6.63-11.6,15.79-11.6,5.94,0,9.16,2.63,9.16,6.53,0,.78,0,1.46-.2,2.14l-.58.1c-3.12-4.97-6.92-7.31-12.08-7.31-4.87,0-9.35,4.19-9.35,8.28,0,8.28,18.12,16.66,18.12,25.63,0,6.33-6.14,11.4-16.37,11.4-8.87,0-13.15-3.41-13.15-8.19,0-.68.1-1.36.29-2.05l.58-.1c2.83,5.16,9.06,8.38,16.47,8.38,5.94,0,9.06-2.44,9.06-8.09,0-8.28-17.73-15.79-17.73-25.14Z"/><path class="cls-1" d="m198.47,218.92h-6.33l.2-1.07h6.33c1.95-1.36,3.7-5.36,5.75-12.28h.68c-.88,3.41-1.95,7.7-3.12,12.28h13.25l-.2,1.07h-13.35c-4,15.59-8.87,34.69-8.87,39.17,0,1.85.58,2.83,2.44,2.83,3.61,0,8.18-4.58,13.06-13.64l.39.39c-4.29,9.45-9.84,16.08-15.4,16.08-2.53,0-4.09-1.46-4.09-4.68,0-5.85,5.75-25.04,9.26-40.15Z"/><path class="cls-1" d="m216.11,262.77c2.24-6.72,9.74-32.16,9.74-40.44,0-1.75-.58-2.73-1.56-2.73-2.34,0-6.04,4.38-10.13,12.08l-.39-.29c3.61-8.38,7.99-14.52,12.57-14.52,1.75,0,3.02,1.36,3.02,4.58,0,5.94-5.26,24.26-8.09,32.94l.39.2c11.01-29.62,18.9-37.61,23.58-37.61,1.85,0,2.53,1.56,2.53,3.61-5.26-.49-14.23.2-28.26,42.19h-3.41Z"/><path class="cls-1" d="m252.25,236.95c-1.07,3.7-1.66,7.7-1.66,11.4,0,8.18,4.09,13.06,8.87,13.06,6.72,0,11.89-6.63,16.18-14.62l.59.39c-5.26,10.43-11.11,16.57-18.32,16.57-6.24,0-10.91-5.94-10.91-14.52,0-14.52,9.06-32.35,25.33-32.35,4.29,0,6.53,1.95,6.53,4.97,0,5.16-9.55,11.98-26.6,15.1Zm.1-.58c15.59-3.8,23.19-9.55,23.19-14.13,0-2.44-1.85-4.19-5.55-4.19-8.38,0-14.71,8.48-17.64,18.32Z"/><path class="cls-1" d="m314.32,261.02c2.34,0,6.14-4.38,10.13-12.18l.39.39c-3.61,8.28-8.09,14.52-12.57,14.52-1.75,0-3.02-1.46-3.02-4.68,0-7.89,4.87-24.85,7.6-33.13l-.58-.29c-12.76,27.09-19.59,38.1-27.28,38.1-3.9,0-5.75-2.73-5.75-8.96,0-17.54,14.71-38.2,38.78-37.81-2.63,8.28-9.26,32.25-9.26,41.22,0,1.75.59,2.83,1.56,2.83Zm4-42.87c-21.63,2.44-31.67,22.7-31.67,36.44,0,5.26,1.36,6.53,3.7,6.53,4.68,0,13.93-8.77,27.97-42.97Z"/><path class="cls-1" d="m387.21,261.02c2.34,0,6.14-4.38,10.13-12.18l.39.39c-3.61,8.28-8.09,14.52-12.57,14.52-1.85,0-3.02-1.46-3.02-4.68,0-7.31,9.35-30.21,9.35-37.03,0-1.66-.97-2.53-2.92-2.53-5.65,0-16.47,7.8-28.84,43.26h-3.51c2.63-10.23,9.45-34.4,9.45-40.83,0-1.66-.97-2.44-2.92-2.44-5.55,0-15.88,7.89-28.26,43.26h-3.41c2.24-7.89,9.74-33.03,9.74-40.34,0-1.75-.58-2.83-1.66-2.83-2.24,0-5.94,4.38-10.04,12.18l-.39-.39c3.61-8.28,8.09-14.52,12.57-14.52,1.75,0,3.02,1.46,3.02,4.68,0,5.94-5.16,23.97-7.99,32.74l.39.2c11.11-27.67,19.2-37.51,27.19-37.51,3.8,0,4.97,1.95,4.97,4.09,0,5.94-4.97,23.39-7.5,33.23l.49.2c11.3-27.77,19.68-37.51,27.87-37.51,3.8,0,5.07,1.95,5.07,4.09,0,7.41-9.16,29.23-9.16,37.12,0,1.75.58,2.83,1.56,2.83Z"/><path class="cls-1" d="m418.38,248.84c0-18.81,11.4-31.96,22.51-31.96,7.21,0,12.18,4.58,12.18,14.81,0,17.93-11.4,32.06-22.51,32.06-7.21,0-12.18-4.68-12.18-14.91Zm3.7-.78c0,10.13,3.41,14.42,9.94,14.42,8.96,0,17.34-15.2,17.34-30.01,0-10.04-3.31-14.42-9.94-14.42-9.06,0-17.34,14.52-17.34,30.01Z"/><path class="cls-1" d="m468.37,218.92h-7.6l.29-1.07h7.41c1.75-15.69,7.02-21.24,14.52-21.24,3.51,0,4.48,1.46,4.77,3.22-1.46-.29-3.31-.29-4.97-.29-6.92,0-11.89,4.19-11.89,11.89,0,2.53.2,3.51.78,6.43h11.11l-.2,1.07h-11.01c-1.27,12.76-4.68,38-7.8,50.67-1.75,7.11-6.33,10.13-14.42,10.52l-.1-.88c6.33-.49,9.45-3.7,10.91-9.35,3.22-12.18,6.43-35.37,8.19-50.96Z"/><path class="cls-1" d="m511.24,218.92h-6.33l.2-1.07h6.33c1.95-1.36,3.7-5.36,5.75-12.28h.68c-.88,3.41-1.95,7.7-3.12,12.28h13.25l-.2,1.07h-13.35c-4,15.59-8.87,34.69-8.87,39.17,0,1.85.58,2.83,2.44,2.83,3.61,0,8.18-4.58,13.06-13.64l.39.39c-4.29,9.45-9.84,16.08-15.4,16.08-2.53,0-4.09-1.46-4.09-4.68,0-5.85,5.75-25.04,9.26-40.15Z"/><path class="cls-1" d="m538.62,199.24c-2.34,0-6.04,4.38-10.04,12.18l-.49-.39c3.7-8.28,8.18-14.52,12.67-14.52,1.75,0,3.02,1.46,3.02,4.68,0,9.35-8.38,39.95-12.57,53.11l.49.2c11.3-27.87,19.68-37.51,27.97-37.51,3.7,0,5.07,1.85,5.07,4,0,7.5-9.16,29.33-9.26,37.22.1,1.75.58,2.83,1.66,2.83,2.34,0,6.04-4.38,10.13-12.18l.39.39c-3.7,8.28-8.18,14.52-12.67,14.52-1.75,0-3.02-1.46-3.02-4.68,0-7.41,9.35-30.3,9.35-37.12,0-1.66-.88-2.53-2.83-2.53-5.65,0-16.47,7.8-28.94,43.36h-3.51c3.51-12.08,14.23-50.47,14.23-60.71,0-1.75-.58-2.83-1.66-2.83Z"/><path class="cls-1" d="m573.5,248.84c0-18.81,11.4-31.96,22.51-31.96,7.21,0,12.18,4.58,12.18,14.81,0,17.93-11.4,32.06-22.51,32.06-7.21,0-12.18-4.68-12.18-14.91Zm3.7-.78c0,10.13,3.41,14.42,9.94,14.42,8.96,0,17.34-15.2,17.34-30.01,0-10.04-3.31-14.42-9.94-14.42-9.06,0-17.34,14.52-17.34,30.01Z"/><path class="cls-1" d="m649.79,226.23l-.49-.2c-11.21,27.87-19.59,37.51-27.87,37.51-3.7,0-5.07-1.85-5.07-4,0-7.5,9.26-29.33,9.26-37.22,0-1.75-.58-2.73-1.66-2.73-2.34,0-6.04,4.29-10.04,12.08l-.49-.29c3.61-8.28,8.19-14.52,12.67-14.52,1.85,0,3.02,1.46,3.02,4.58,0,7.41-9.35,30.69-9.35,37.13,0,1.66.88,2.53,2.83,2.53,5.65,0,16.47-7.8,28.84-43.26h3.51c-2.24,7.89-9.65,33.03-9.65,40.34,0,1.75.58,2.83,1.56,2.83,2.34,0,6.04-4.38,10.13-12.18l.39.39c-3.61,8.28-8.09,14.52-12.67,14.52-1.75,0-3.02-1.46-3.02-4.68,0-5.94,5.16-23.97,8.09-32.84Z"/><path class="cls-1" d="m671.42,276.9c11.69,0,13.93-1.75,16.86-15.79.98-5.36,2.05-10.82,3.22-16.08,1.56-7.6,3.12-14.42,4.58-19.1l-.58-.29c-12.86,26.99-19.68,37.81-27.38,37.81-3.9,0-5.75-2.63-5.75-8.67,0-18.22,15.4-37.9,38.78-37.81-2.83,9.16-7.02,29.62-8.28,37.9-2.24,14.91-8.77,25.14-24.26,25.14-7.99,0-11.3-1.85-11.11-5.16,4,1.07,9.35,2.05,13.93,2.05Zm26.21-59.05c-20.95,2.14-31.86,22.22-31.86,36.64,0,5.16,1.27,6.43,3.7,6.43,4.77,0,14.13-8.96,28.16-43.07Z"/><path class="cls-1" d="m717.41,199.24c-2.34,0-6.04,4.38-10.04,12.18l-.49-.39c3.7-8.28,8.18-14.52,12.67-14.52,1.75,0,3.02,1.46,3.02,4.68,0,9.35-8.38,39.95-12.57,53.11l.49.2c11.3-27.87,19.68-37.51,27.97-37.51,3.7,0,5.07,1.85,5.07,4,0,7.5-9.16,29.33-9.26,37.22.1,1.75.58,2.83,1.66,2.83,2.34,0,6.04-4.38,10.13-12.18l.39.39c-3.7,8.28-8.19,14.52-12.67,14.52-1.75,0-3.02-1.46-3.02-4.68,0-7.41,9.35-30.3,9.35-37.12,0-1.66-.88-2.53-2.83-2.53-5.65,0-16.47,7.8-28.94,43.36h-3.51c3.51-12.08,14.23-50.47,14.23-60.71,0-1.75-.58-2.83-1.66-2.83Z"/><path class="cls-1" d="m762.62,218.92h-6.33l.2-1.07h6.33c1.95-1.36,3.7-5.36,5.75-12.28h.68c-.88,3.41-1.95,7.7-3.12,12.28h13.25l-.2,1.07h-13.35c-4,15.59-8.87,34.69-8.87,39.17,0,1.85.58,2.83,2.44,2.83,3.61,0,8.18-4.58,13.06-13.64l.39.39c-4.29,9.45-9.84,16.08-15.4,16.08-2.53,0-4.09-1.46-4.09-4.68,0-5.85,5.75-25.04,9.26-40.15Z"/><path class="cls-1" d="m783.28,228.57c0-6.82,6.63-11.6,15.79-11.6,5.94,0,9.16,2.63,9.16,6.53,0,.78,0,1.46-.2,2.14l-.58.1c-3.12-4.97-6.92-7.31-12.08-7.31-4.87,0-9.35,4.19-9.35,8.28,0,8.28,18.12,16.66,18.12,25.63,0,6.33-6.14,11.4-16.37,11.4-8.87,0-13.15-3.41-13.15-8.19,0-.68.1-1.36.29-2.05l.58-.1c2.83,5.16,9.06,8.38,16.47,8.38,5.94,0,9.06-2.44,9.06-8.09,0-8.28-17.73-15.79-17.73-25.14Z"/></svg>